<svg height="511pt" viewBox="0 0 511.99977 511" width="511pt" xmlns="http://www.w3.org/2000/svg"><path d="m511.992188 110.171875-2.546876-92.382813c-.222656-8.042968-6.691406-14.507812-14.734374-14.730468l-92.382813-2.554688c-4.339844-.117187-8.519531 1.625-11.484375 4.792969l-270.886719 289.273437-10.269531-10.265624c-5.917969-5.917969-15.515625-5.917969-21.433594 0-5.921875 5.921874-5.921875 15.515624 0 21.4375l21.335938 21.335937c.003906.003906.003906.003906.003906.003906l.4375.4375-99.875 99.878907c-6.550781 6.546874-10.15625 15.253906-10.15625 24.515624 0 9.261719 3.605469 17.96875 10.15625 24.515626l25.921875 25.921874c6.757813 6.757813 15.636719 10.136719 24.511719 10.136719 8.878906 0 17.757812-3.378906 24.515625-10.136719l99.878906-99.878906 21.773437 21.773438c2.960938 2.960937 6.839844 4.441406 10.71875 4.441406 3.878907 0 7.757813-1.480469 10.71875-4.441406 5.917969-5.917969 5.917969-15.515625 0-21.433594l-10.269531-10.269531 289.277344-270.886719c3.167969-2.96875 4.910156-7.148438 4.789063-11.484375zm-421.933594 280.195313 32.078125 32.082031-20.132813 20.132812-32.082031-32.078125zm-32.546875 90.546874-25.921875-25.921874c-1.054688-1.054688-1.273438-2.253907-1.273438-3.078126 0-.824218.21875-2.023437 1.273438-3.078124l16.898437-16.894532 32.078125 32.078125-16.894531 16.894531c-1.699219 1.699219-4.460937 1.699219-6.160156 0zm86.0625-79.902343-32.082031-32.078125 19.976562-19.976563 32.078125 32.082031zm52.90625-29.917969-16.816407-16.816406 245.074219-245.074219c5.917969-5.917969 5.917969-15.515625 0-21.4375-5.917969-5.917969-15.515625-5.917969-21.4375 0l-245.074219 245.078125-16.824218-16.824219 266.90625-285.019531 71.226562 1.964844 1.964844 71.226562zm0 0"/></svg>