<svg id="Capa_1" enable-background="new 0 0 512.73 512.73" height="512" viewBox="0 0 512.73 512.73" width="512" xmlns="http://www.w3.org/2000/svg"><path d="m478.326 74.872c-21.354-17.638-49.574-27.351-79.46-27.351-2.243 0-4.363.506-6.273 1.388-13.324-15.86-33.288-25.965-55.574-25.965-9.722 0-19.238 1.934-28.083 5.651-12.812-17.719-33.44-28.553-56.011-28.553-23.922 0-45.505 12.137-58.025 31.478-10.423-5.596-22.124-8.576-34.266-8.576-21.735 0-41.255 9.617-54.568 24.803-26.97 1.538-52.174 11.03-71.661 27.125-22.186 18.325-34.405 42.937-34.405 69.305 0 24.019 10.405 47.033 29.298 64.804 18.212 17.13 43.136 28.168 70.18 31.08.546.059 1.087.087 1.624.087.386 0 .767-.025 1.147-.054 12.425 10.142 28.216 16.046 45.127 16.046 4.113 0 8.165-.366 12.125-1.056 1.967 8.507 3.578 17.3 4.81 26.267-30.149 3.422-55.956 8.464-75.269 14.756-10.712 3.491-43.312 14.112-43.312 37.91 0 11.827 7.922 21.896 23.546 29.926 11.032 5.67 26.399 10.67 45.675 14.86 13.949 3.032 29.56 5.563 46.365 7.555-8.61 43.026-26.041 79.537-49.095 100.145-6.176 5.521-6.708 15.003-1.187 21.18 2.963 3.315 7.067 5.003 11.189 5.003 3.558 0 7.129-1.259 9.991-3.816 28.642-25.603 49.535-68.811 59.159-119.624 20.778 1.563 42.794 2.38 65.358 2.38s44.58-.816 65.358-2.38c9.624 50.814 30.516 94.022 59.159 119.625 2.862 2.558 6.433 3.816 9.991 3.816 4.122 0 8.226-1.689 11.189-5.003 5.521-6.177 4.989-15.659-1.187-21.18-23.055-20.608-40.485-57.119-49.095-100.146 16.805-1.992 32.416-4.522 46.365-7.555 19.275-4.19 34.643-9.19 45.675-14.86 15.624-8.03 23.546-18.099 23.546-29.926 0-23.763-32.497-34.378-43.175-37.866-19.324-6.313-45.18-11.371-75.403-14.8 1.227-8.918 2.825-17.667 4.782-26.146 3.769.617 7.589.934 11.42.934 17.06 0 32.736-6.025 45.027-16.051.495-.396 2.225.041 2.871-.028 27.044-2.912 51.967-13.95 70.18-31.08 18.893-17.771 29.298-40.786 29.298-64.804-.002-26.367-12.22-50.979-34.406-69.304zm-348.037 276.444c-32.48-6.199-47.392-13.343-52.768-17.305 7.45-5.574 32.229-16.275 89.466-22.784.197 4.594.303 9.198.303 13.796 0 10.703-.534 21.286-1.561 31.641-12.63-1.477-24.529-3.266-35.44-5.348zm126.441 10.311c-20.984 0-41.603-.742-61.113-2.159 1.098-11.26 1.674-22.77 1.674-34.446 0-21.63-1.921-42.763-5.71-63.09 18.334 14.561 41.323 22.807 65.149 22.807 24.439 0 47.17-8.462 65.171-22.807-3.77 20.353-5.732 41.753-5.732 63.09 0 11.675.576 23.185 1.674 34.446-19.51 1.417-40.129 2.159-61.113 2.159zm179.208-27.617c-5.376 3.962-20.287 11.106-52.768 17.305-10.911 2.083-22.81 3.872-35.441 5.347-1.027-10.355-1.561-20.939-1.561-31.641 0-4.603.109-9.205.306-13.796 57.244 6.512 82.016 17.215 89.464 22.785zm-2.075-129.319c1.84-6.323 2.846-12.997 2.846-19.905 0-1.609-.055-3.236-.164-4.835-.563-8.265-7.715-14.506-15.983-13.948-8.265.562-14.51 7.718-13.948 15.983.063.925.095 1.868.095 2.8 0 22.803-18.552 41.354-41.355 41.354-4.631 0-9.236-.803-13.593-2.319 3.566-7.766 6.244-16.061 7.847-24.79 1.496-8.148-3.896-15.966-12.044-17.462-8.154-1.495-15.967 3.897-17.462 12.044-6.503 35.419-37.36 61.126-73.372 61.126-20.855 0-40.806-8.861-54.829-24.031 6.381-7.539 11.266-16.45 14.088-26.336 2.274-7.966-2.34-16.267-10.307-18.541-7.966-2.273-16.267 2.34-18.541 10.307-5.042 17.665-21.395 30.002-39.766 30.002-17.97 0-33.775-11.482-39.329-28.572-2.561-7.878-11.022-12.191-18.902-9.629-7.183 2.335-11.382 9.575-10.131 16.806-29.1-10.654-49.013-34.076-49.013-60.568 0-30.066 25.182-55.536 59.659-63.814-1.044 4.892-1.605 9.961-1.605 15.159 0 7.454 1.143 14.835 3.396 21.94 2.026 6.389 7.931 10.469 14.294 10.469 1.502 0 3.03-.228 4.539-.706 7.896-2.504 12.268-10.936 9.764-18.833-1.322-4.167-1.992-8.498-1.992-12.871 0-8.184 2.326-15.832 6.344-22.328 1.238-1.222 2.252-2.662 3.007-4.251 7.81-9.743 19.799-15.999 33.228-15.999 11.245 0 21.851 4.344 29.866 12.231 5.905 5.812 15.402 5.735 21.212-.169.563-.572 1.054-1.186 1.506-1.819 1.436-1.583 2.571-3.483 3.267-5.651 5.101-15.896 19.745-26.576 36.44-26.576 15.539 0 29.419 9.277 35.361 23.634 3.266 7.888 12.308 11.637 20.196 8.372 1.77-.733 3.437-1.891 5.03-2.945 6.992-4.63 15.121-7.077 23.507-7.077 23.478 0 42.579 19.101 42.579 42.579 0 4.871-.827 9.668-2.458 14.259-2.774 7.806 1.305 16.383 9.111 19.157 1.661.59 3.355.871 5.022.87 6.169 0 11.951-3.836 14.134-9.981 2.781-7.824 4.191-16.002 4.191-24.305 0-6.089-.763-12.002-2.183-17.657 42.244 3.414 75.317 31.851 75.317 66.312-.002 26.448-19.848 49.835-48.869 60.514z"/></svg>