<?xml version="1.0" encoding="iso-8859-1"?>
<!-- Generator: Adobe Illustrator 19.0.0, SVG Export Plug-In . SVG Version: 6.00 Build 0)  -->
<svg version="1.1" id="Layer_1" xmlns="http://www.w3.org/2000/svg" xmlns:xlink="http://www.w3.org/1999/xlink" x="0px" y="0px"
	 viewBox="0 0 512.001 512.001" style="enable-background:new 0 0 512.001 512.001;" xml:space="preserve">
<g>
	<g>
		<path d="M507.407,21.693L490.29,2.724c-1.485-1.645-3.569-2.624-5.782-2.717c-2.215-0.089-4.373,0.709-5.992,2.223
			c-0.863,0.808-87.799,81.645-213.603,151.458C183.874,198.661,62.802,254.064,14.51,275.798
			c-6.015,2.707-10.241,7.961-11.597,14.416c-1.355,6.458,0.404,12.973,4.827,17.875c3.97,4.4,9.494,6.75,15.138,6.75
			c2.814,0,5.659-0.586,8.355-1.792c0.597-0.266,1.216-0.545,1.856-0.831c2.425,4.081,5.804,9.634,10.088,16.347
			c18.691,29.276,49.026,71.988,87.388,109.209c48.202,46.771,95.647,71.741,141.015,74.218c0.152,0.009,0.303,0.012,0.455,0.012
			c3.762,0,7.076-2.556,8.004-6.243c0.964-3.834-0.924-7.814-4.503-9.492c-45.443-21.307-137.372-109.918-172.375-194.925
			c-0.854-2.076-2.519-3.716-4.608-4.538c-2.089-0.824-4.424-0.761-6.465,0.174c-2.283,1.045-7.732,3.427-14.144,6.206l-5.435-8.845
			c57.616-26.396,151.005-70.32,217.536-107.242C417.722,116.241,506.045,34.072,506.923,33.251
			C510.207,30.174,510.423,25.034,507.407,21.693z M48.245,305.386c2.861-1.295,5.908-2.677,9.125-4.139l5.252,8.547
			c-3.365,1.446-6.546,2.811-9.253,3.969C51.38,310.572,49.673,307.767,48.245,305.386z M91.24,315.409
			c16.772,37.301,45.199,78.568,80.786,117.127c18.992,20.578,38.607,38.825,56.815,53.086
			c-28.106-10.99-57.143-30.952-86.777-59.705c-33.798-32.794-61.257-70.11-79.661-98.058
			C71.122,324.123,83.116,318.957,91.24,315.409z M282.031,172.656C195.547,220.65,63.035,280.709,24.482,297.973
			c-1.546,0.691-3.345,0.309-4.482-0.95c-1.158-1.284-1.077-2.692-0.924-3.417c0.152-0.723,0.641-2.041,2.212-2.748
			c48.482-21.817,170.053-77.452,251.64-122.728c108.359-60.134,188.37-128.416,210.639-148.205l6.054,6.708
			C467.877,45.954,389.006,113.291,282.031,172.656z"/>
	</g>
</g>
<g>
</g>
<g>
</g>
<g>
</g>
<g>
</g>
<g>
</g>
<g>
</g>
<g>
</g>
<g>
</g>
<g>
</g>
<g>
</g>
<g>
</g>
<g>
</g>
<g>
</g>
<g>
</g>
<g>
</g>
</svg>
