<svg height="512pt" viewBox="0 0 512 512.00075" width="512pt" xmlns="http://www.w3.org/2000/svg"><path d="m402.867188 230.824219 59.234374 56.417969c1.859376 1.773437 4.332032 2.757812 6.898438 2.757812h33c5.523438 0 10-4.476562 10-10 0-5.519531-4.476562-10-10-10h-29l-60.105469-57.238281c-2.355469-2.246094-5.664062-3.203125-8.855469-2.566407l-64.867187 12.976563c-9.585937-16.695313-19.734375-31.050781-29.941406-42.355469 3.625-3.320312 6.707031-6.945312 9.203125-10.8125h57.566406c1.550781 0 3.082031-.363281 4.472656-1.058594l53.550782-26.777343 24.90625 24.90625c3.902343 3.90625 10.234374 3.90625 14.140624 0s3.90625-10.238281 0-14.144531l-30-30c-3.042968-3.042969-7.691406-3.796876-11.542968-1.871094l-57.886719 28.941406h-47.949219c.1875-1.652344.308594-3.316406.308594-5 0-5.46875-1.027344-11.695312-2.886719-18.21875l45.757813-9.15625c16.214844-3.242188 37.605468-15.140625 44.53125-38.007812 4.917968-16.230469 3.644531-42.710938-30.332032-76.6875-3.90625-3.90625-10.238281-3.90625-14.144531 0-3.902343 3.90625-3.902343 10.238281 0 14.144531 21.351563 21.347656 30.113281 40.972656 25.335938 56.75-4.082031 13.476562-17.664063 21.863281-29.3125 24.191406l-49.253907 9.851563c-11.8125-23.828126-33.183593-47.867188-59.695312-47.867188-26.53125 0-47.898438 24.074219-59.699219 47.867188l-49.25-9.851563c-11.644531-2.332031-25.226562-10.714844-29.308593-24.195313-4.777344-15.777343 3.980468-35.402343 25.328124-56.75 3.90625-3.902343 3.90625-10.234374 0-14.140624-3.902343-3.90625-10.234374-3.90625-14.140624 0-33.972657 33.972656-35.246094 60.453124-30.328126 76.683593 6.921876 22.871094 28.3125 34.769531 44.527344 38.011719l45.757813 9.15625c-1.863281 6.523438-2.886719 12.75-2.886719 18.21875 0 1.683594.121094 3.347656.308594 5h-47.949219l-57.886719-28.941406c-3.851562-1.925782-8.5-1.171875-11.542968 1.871094l-30 30c-3.90625 3.90625-3.90625 10.238281 0 14.144531 3.902343 3.90625 10.234374 3.902343 14.140624 0l24.902344-24.90625 53.554688 26.777343c1.390625.695313 2.921875 1.054688 4.472656 1.054688h57.5625c2.496094 3.871094 5.578125 7.496094 9.207031 10.816406-10.210937 11.304688-20.355469 25.660156-29.945312 42.355469l-64.863281-12.976563c-3.195313-.636718-6.5.320313-8.859376 2.5625l-60.101562 57.242188h-29c-5.523438 0-10 4.476562-10 10s4.476562 10 10 10h33c2.570312 0 5.039062-.988281 6.894531-2.757812l59.238281-56.417969 53.820313 10.765625c-6.515625 13.035156-12.320313 26.480468-17.285156 39.921875l-78.066407 50.070312c-2.210937 1.417969-3.773437 3.644531-4.355468 6.203125l-28.226563 124.214844h-25.019531c-5.523438 0-10 4.476562-10 10s4.476562 10 10 10h33c4.667969 0 8.71875-3.230469 9.75-7.785156l29.09375-128.007813 54.144531-34.726562c-6.433593 23.28125-9.988281 45.5625-9.988281 64.519531 0 85.058594 71.1875 136 130 136 57.828125 0 130-49.996094 130-136 0-18.957031-3.554688-41.238281-9.988281-64.519531l54.144531 34.726562 29.09375 128.007813c1.035156 4.554687 5.082031 7.785156 9.75 7.785156h33c5.523438 0 10-4.476562 10-10s-4.476562-10-10-10h-25.019531l-28.230469-124.214844c-.582031-2.558594-2.144531-4.785156-4.351562-6.203125l-78.066407-50.070312c-4.964843-13.441407-10.769531-26.886719-17.285156-39.921875zm-96.867188 247.261719c-12.851562 7.058593-26.824219 11.691406-40 13.289062v-50.375c0-5.523438-4.476562-10-10-10s-10 4.476562-10 10v50.375c-13.175781-1.597656-27.148438-6.234375-40-13.292969v-211.898437l40 20v64.816406c0 5.523438 4.476562 10 10 10s10-4.476562 10-10v-64.820312l40-20zm-50-209.265626-67.066406-33.53125c9.828125-17.390624 20.429687-32.332031 30.683594-43.242187 10.890624 5.160156 23.53125 7.953125 36.382812 7.953125 12.847656 0 25.492188-2.792969 36.386719-7.953125 10.25 10.910156 20.851562 25.851563 30.679687 43.242187zm0-188.820312c25.050781 0 50 42.722656 50 65 0 21.449219-26.023438 35-50 35-23.421875 0-50-13.242188-50-35 0-22.421875 25.042969-65 50-65zm-110 296c0-34.175781 12.761719-80.550781 33.617188-123.011719l6.382812 3.191407v208.152343c-25.625-21.792969-40-53.101562-40-88.332031zm180 88.332031v-208.152343l6.382812-3.191407c20.859376 42.460938 33.617188 88.835938 33.617188 123.011719 0 35.230469-14.371094 66.539062-40 88.332031zm0 0"/><path d="m266 396c0 5.523438-4.476562 10-10 10s-10-4.476562-10-10 4.476562-10 10-10 10 4.476562 10 10zm0 0"/></svg>