<?xml version="1.0" encoding="iso-8859-1"?>
<!-- Generator: Adobe Illustrator 19.0.0, SVG Export Plug-In . SVG Version: 6.00 Build 0)  -->
<svg version="1.1" id="Capa_1" xmlns="http://www.w3.org/2000/svg" xmlns:xlink="http://www.w3.org/1999/xlink" x="0px" y="0px"
	 viewBox="0 0 512 512" style="enable-background:new 0 0 512 512;" xml:space="preserve">
<g>
	<g>
		<path d="M496.922,149.407c-103.252,0-187.745,22.506-240.443,41.385c-43.608,15.623-72.974,31.2-85.191,38.175
			c-44.454-14.918-94.52-25.351-156.21-25.351C6.751,203.617,0,210.368,0,218.695v128.819c0,8.327,6.751,15.078,15.078,15.078
			h481.843c8.327,0,15.078-6.751,15.078-15.078V164.486C512,156.158,505.249,149.407,496.922,149.407z M30.157,332.436v-98.434
			c97.157,2.964,164.302,34.282,229.335,64.618c25.083,11.701,50.488,23.549,77.662,33.817H30.157z M481.843,332.159
			c-85.475-2.992-145.876-31.144-209.603-60.869c-20.509-9.566-41.224-19.222-62.987-28.13c14.458-7.01,34.145-15.689,58.351-24.318
			c47.675-16.995,122.623-37.086,214.239-39.11V332.159z"/>
	</g>
</g>
<g>
</g>
<g>
</g>
<g>
</g>
<g>
</g>
<g>
</g>
<g>
</g>
<g>
</g>
<g>
</g>
<g>
</g>
<g>
</g>
<g>
</g>
<g>
</g>
<g>
</g>
<g>
</g>
<g>
</g>
</svg>
