<svg height="511pt" viewBox="0 -28 511.99999 511" width="511pt" xmlns="http://www.w3.org/2000/svg"><path d="m486.632812 343.261719c-15.761718-13.742188-38.5-15.472657-56.015624-5.199219l-41.335938-36.019531c19.871094-28.636719 30.816406-63.167969 30.816406-99.199219 0-19.722656-3.199218-38.90625-9.410156-57l30.003906-26.136719c17.417969 9.617188 39.308594 7.585938 54.8125-5.917969 20.007813-17.445312 22.113282-47.945312 4.675782-68.015624-4.316407-4.9375-9.582032-8.9375-15.433594-11.753907-1.980469-6.203125-5.222656-11.984375-9.539063-16.953125-8.445312-9.71875-20.167969-15.558594-33.007812-16.449218-12.839844-.890626-25.257813 3.285156-34.953125 11.746093-15.492188 13.484375-20.519532 34.898438-13.40625 53.496094l-20.644532 17.972656c-19.886718-21-44.925781-36.621093-72.171874-44.769531-5.335938-1.589844-10.957032 1.4375-12.550782 6.773438-1.597656 5.339843 1.4375 10.957031 6.773438 12.554687 61.632812 18.421875 104.683594 77.824219 104.683594 144.453125 0 44.71875-19.007813 86.800781-52.144532 115.460938-2.210937 1.914062-3.484375 4.699218-3.484375 7.628906v44.113281h-34.835937v-38.074219c0-5.570312-4.511719-10.082031-10.082032-10.082031-5.570312 0-10.085937 4.511719-10.085937 10.082031v38.074219h-24.152344v-38.074219c0-5.570312-4.515625-10.082031-10.082031-10.082031-5.570312 0-10.085938 4.511719-10.085938 10.082031v38.074219h-24.125v-38.074219c0-5.570312-4.515624-10.082031-10.082031-10.082031-5.570312 0-10.085937 4.511719-10.085937 10.082031v38.074219h-34.835938v-44.113281c0-2.929688-1.273437-5.710938-3.484375-7.628906-33.15625-28.671876-52.167969-70.757813-52.167969-115.460938 0-66.21875 42.71875-125.511719 103.886719-144.1875 5.328125-1.625 8.328125-7.261719 6.699219-12.589844-1.625-5.328125-7.261719-8.328125-12.589844-6.699218-26.492187 8.089843-50.867187 23.269531-70.390625 43.570312l-19.597656-17.074219c7.121094-18.609375 2.082031-40.023437-13.414063-53.488281-9.6875-8.464844-22.085937-12.640625-34.921874-11.757812-12.847657.882812-24.578126 6.726562-33.007813 16.429687-4.3125 4.933594-7.566406 10.71875-9.570313 16.964844-5.875 2.828125-11.140624 6.835937-15.4375 11.78125-8.453124 9.710937-12.621093 22.132812-11.734374 34.980469.886718 12.84375 6.722656 24.574218 16.433593 33.019531 15.503907 13.503906 37.382813 15.539062 54.78125 5.917969l28.546875 24.875c-6.5 18.464843-9.855468 38.082031-9.855468 58.257812 0 36.449219 11.210937 71.378906 31.546874 100.21875l-40.164062 34.996094c-17.492188-10.265625-40.226562-8.539063-56.019531 5.203125-20.007813 17.445312-22.117188 47.945312-4.679688 68.011719 4.316407 4.9375 9.578125 8.9375 15.433594 11.753906 1.976563 6.199218 5.226563 11.984375 9.5625 16.976562 3.65625 4.183594 7.945313 7.679688 12.78125 10.417969 7.324219 4.09375 15.410156 6.101563 23.464844 6.101563 11.402343 0 22.730469-4.023438 31.699219-11.839844 14.9375-13.011719 20.171874-33.878906 13.875-52.125l18.15625-15.804688v3.378906c0 5.570313 4.515624 10.082032 10.085937 10.082032h198.617187c5.570313 0 10.085938-4.511719 10.085938-10.082032v-5.03125l20.035156 17.460938c-6.289062 18.265625-1.042968 39.136719 13.894532 52.121094 8.96875 7.8125 20.285156 11.835937 31.691406 11.835937 8.0625 0 16.167968-2.011719 23.511718-6.121093 4.832032-2.730469 9.121094-6.238282 12.71875-10.394532 4.320313-4.941406 7.574219-10.726562 9.570313-16.96875 5.863281-2.820312 11.136719-6.824218 15.46875-11.785156 17.425781-20.054688 15.304687-50.558594-4.726563-67.988281zm-100.460937-243.964844 26.722656-23.28125c3.695313-3.214844 4.542969-8.625 2.007813-12.820313-7.054688-11.679687-4.707032-26.660156 5.59375-35.625 5.640625-4.921874 12.855468-7.34375 20.3125-6.828124 7.457031.515624 14.265625 3.910156 19.171875 9.558593 3.238281 3.722657 5.433593 8.222657 6.351562 13.007813.683594 3.554687 3.214844 6.46875 6.632813 7.640625 4.621094 1.585937 8.78125 4.386719 12.011718 8.082031 10.136719 11.664062 8.910157 29.40625-2.722656 39.550781-10.300781 8.96875-25.441406 9.234375-36.007812.636719-3.804688-3.097656-9.289063-3.007812-12.988282.214844l-30.714843 26.753906c-4.527344-9.257812-9.914063-18.140625-16.125-26.5625-.082031-.109375-.164063-.21875-.246094-.328125zm-307.40625.136719c-3.703125-3.226563-9.195313-3.316406-13-.210938-10.539063 8.597656-25.667969 8.328125-35.972656-.640625-5.644531-4.914062-9.039063-11.730469-9.554688-19.199219s1.910157-14.695312 6.832031-20.355468c3.214844-3.699219 7.359376-6.492188 11.984376-8.078125 3.402343-1.167969 5.929687-4.0625 6.625-7.597657.949218-4.847656 3.152343-9.351562 6.386718-13.050781 4.910156-5.652343 11.722656-9.046875 19.183594-9.558593 7.449219-.511719 14.644531 1.910156 20.289062 6.839843 10.304688 8.957031 12.664063 23.933594 5.605469 35.613281-2.53125 4.191407-1.6875 9.601563 2.007813 12.820313l25.566406 22.273437c-.433594.578126-.871094 1.152344-1.296875 1.734376-5.835937 7.953124-10.925781 16.320312-15.265625 25.023437zm29.910156 282.789062c-3.597656 3.132813-4.507812 8.355469-2.1875 12.519532 6.398438 11.476562 3.835938 26.085937-6.089843 34.734374-8.898438 7.753907-21.78125 9.097657-32.023438 3.363282-2.8125-1.589844-5.332031-3.644532-7.46875-6.085938-3.242188-3.734375-5.4375-8.230468-6.347656-13.003906-.679688-3.558594-3.210938-6.476562-6.636719-7.648438-4.621094-1.585937-8.78125-4.386718-12.007813-8.082031-10.136718-11.664062-8.914062-29.40625 2.71875-39.550781 10.511719-9.140625 26.308594-9.140625 36.75.007812 3.796876 3.324219 9.464844 3.332032 13.269532.019532l45.511718-39.65625c3.640626 4.039062 7.472657 7.921875 11.515626 11.621094v19.550781zm367.476563 15.777344c-3.246094 3.714844-7.40625 6.515625-12.027344 8.101562-3.410156 1.167969-5.9375 4.066407-6.628906 7.605469-.941406 4.835938-3.144532 9.339844-6.394532 13.058594-2.113281 2.4375-4.613281 4.484375-7.390624 6.054687-10.277344 5.75-23.164063 4.410157-32.070313-3.347656-9.925781-8.632812-12.492187-23.246094-6.105469-34.742187 2.316406-4.164063 1.402344-9.375-2.1875-12.503907l-38.878906-33.882812v-17.882812c4.347656-3.976563 8.460938-8.160157 12.339844-12.535157l46.554687 40.570313c3.804688 3.308594 9.46875 3.308594 13.265625-.011719 10.464844-9.152344 26.265625-9.160156 36.757813-.015625 11.652343 10.144531 12.886719 27.886719 2.765625 39.53125zm0 0"/><path d="m151.742188 197.171875c0 37.78125 20.4375 67.375 46.527343 67.375 26.09375 0 46.527344-29.59375 46.527344-67.375 0-37.765625-20.433594-67.347656-46.527344-67.347656-26.089843 0-46.527343 29.582031-46.527343 67.347656zm72.886718 0c0 27.820313-13.890625 47.207031-26.355468 47.207031-12.46875 0-26.359376-19.386718-26.359376-47.207031 0-27.800781 13.890626-47.175781 26.359376-47.175781 12.464843 0 26.355468 19.375 26.355468 47.175781zm0 0"/><path d="m308.136719 264.546875c26.089843 0 46.527343-29.59375 46.527343-67.375 0-37.765625-20.4375-67.347656-46.527343-67.347656-26.089844 0-46.527344 29.582031-46.527344 67.347656 0 37.78125 20.4375 67.375 46.527344 67.375zm0-114.550781c12.46875 0 26.359375 19.375 26.359375 47.175781 0 27.820313-13.890625 47.207031-26.359375 47.207031-12.464844 0-26.355469-19.386718-26.355469-47.207031 0-27.800781 13.890625-47.175781 26.355469-47.175781zm0 0"/><path d="m255.0625 52.542969h.195312c5.570313 0 10.085938-4.515625 10.085938-10.082031 0-5.570313-4.515625-10.085938-10.085938-10.085938h-.195312c-5.570312 0-10.085938 4.515625-10.085938 10.085938 0 5.566406 4.515626 10.082031 10.085938 10.082031zm0 0"/></svg>