<svg height="511pt" viewBox="0 1 511.9995 511" width="511pt" xmlns="http://www.w3.org/2000/svg"><path d="m486.554688 208.554688c-2.3125-2.3125-5.308594-3.773438-8.511719-4.226563.019531-.714844.054687-1.421875.054687-2.136719 0-23.238281-9.050781-45.089844-25.484375-61.523437-2.324219-2.324219-5.332031-3.789063-8.550781-4.234375.558594-22.984375-7.890625-46.152344-25.390625-63.652344-2.316406-2.316406-5.3125-3.777344-8.511719-4.230469.015625-.710937.050782-1.421875.050782-2.136719 0-23.238281-9.050782-45.089843-25.484376-61.523437-2.816406-2.8125-6.628906-4.390625-10.609374-4.390625-3.976563 0-7.792969 1.578125-10.605469 4.394531l-60.757813 60.753907c-53.109375 53.113281-66.675781 131.011718-40.726562 196.800781-21.191406-8.394531-43.988282-12.796875-67.46875-12.796875-48.882813 0-94.84375 19.035156-129.410156 53.605468l-60.753907 60.753907c-5.859375 5.855469-5.859375 15.355469 0 21.214843 16.433594 16.433594 38.28125 25.484376 61.523438 25.484376.710937 0 1.421875-.035157 2.132812-.054688.4375 3.113281 1.835938 6.117188 4.230469 8.511719 16.433594 16.4375 38.28125 25.484375 61.523438 25.484375.714843 0 1.421874-.035156 2.136718-.050782.453125 3.203126 1.914063 6.199219 4.226563 8.511719 16.964843 16.960938 39.242187 25.441407 61.523437 25.441407.710938 0 1.421875-.03125 2.132813-.050782.445312 3.21875 1.910156 6.230469 4.234375 8.554688 16.960937 16.960937 39.242187 25.441406 61.523437 25.441406s44.5625-8.480469 61.523438-25.441406l35.296875-35.300782c17.320312-17.320312 24.378906-41.078124 21.179687-63.644531 3.496094.492188 7.050781.753907 10.640625.753907 20.035156 0 38.871094-7.800782 53.039063-21.96875l35.296875-35.296876c33.921875-33.921874 33.921875-89.121093-.003906-123.046874zm-141.371094 221.992187-35.296875 35.296875c-18.554688 18.554688-46.828125 21.617188-68.589844 9.191406l38.890625-38.894531c5.859375-5.859375 5.859375-15.355469 0-21.214844-5.855469-5.855469-15.355469-5.855469-21.214844 0l-16.972656 16.972657c-18.554688 18.554687-46.828125 21.621093-68.589844 9.191406l38.890625-38.894532c5.859375-5.855468 5.859375-15.355468 0-21.214843-5.859375-5.855469-15.355469-5.855469-21.214843 0l-16.972657 16.972656c-10.765625 10.765625-25.082031 16.695313-40.308593 16.695313-10.089844 0-19.777344-2.601563-28.296876-7.488282l38.90625-38.90625c5.859376-5.859375 5.859376-15.359375 0-21.214844-5.859374-5.859374-15.355468-5.859374-21.214843 0l-16.972657 16.972657c-10.765624 10.765625-25.082031 16.695312-40.308593 16.695312-10.089844 0-19.777344-2.605469-28.296875-7.492187l48.742187-48.746094c28.902344-28.898438 67.328125-44.816406 108.199219-44.816406s79.296875 15.917968 108.195312 44.816406l42.429688 42.429688c0 .003906.003906.003906.003906.007812 17.539063 17.546875 17.539063 46.09375-.007812 63.640625zm120.15625-120.160156-35.296875 35.296875c-8.5 8.5-19.800781 13.183594-31.820313 13.183594-12.019531 0-23.320312-4.683594-31.824218-13.183594l-42.429688-42.429688c-59.65625-59.660156-59.65625-156.730468 0-216.390625l48.746094-48.746093c4.890625 8.523437 7.492187 18.210937 7.492187 28.300781 0 15.222656-5.929687 29.539062-16.695312 40.304687l-16.972657 16.972656c-5.859374 5.859376-5.859374 15.359376 0 21.214844 5.855469 5.859375 15.355469 5.859375 21.214844 0l38.90625-38.902344c4.886719 8.519532 7.492188 18.207032 7.492188 28.296876 0 15.226562-5.929688 29.539062-16.695313 40.304687l-16.976562 16.976563c-5.855469 5.855468-5.855469 15.355468 0 21.214843 2.929687 2.929688 6.769531 4.394531 10.609375 4.394531 3.835937 0 7.675781-1.464843 10.605468-4.394531l16.972657-16.972656c.003906-.003906.007812-.007813.007812-.011719l21.925781-21.921875c4.886719 8.519531 7.492188 18.207031 7.492188 28.296875 0 15.226563-5.929688 29.539063-16.695312 40.304688l-16.972657 16.976562c-5.859375 5.855469-5.859375 15.355469 0 21.214844 2.929688 2.929688 6.765625 4.394531 10.605469 4.394531s7.679688-1.464843 10.605469-4.394531l16.972656-16.972656c.003906-.003906.003906-.003906.003906-.003906l21.917969-21.917969c12.429688 21.765625 9.367188 50.039062-9.191406 68.59375zm0 0"/></svg>